<?xml version="1.0" encoding="UTF-8" standalone="no"?>
<!-- Created with Inkscape (http://www.inkscape.org/) -->

<svg
   width="135.96367mm"
   height="122.75199mm"
   viewBox="0 0 135.96367 122.75199"
   version="1.1"
   id="svg1"
   xml:space="preserve"
   xmlns:inkscape="http://www.inkscape.org/namespaces/inkscape"
   xmlns:sodipodi="http://sodipodi.sourceforge.net/DTD/sodipodi-0.dtd"
   xmlns="http://www.w3.org/2000/svg"
   xmlns:svg="http://www.w3.org/2000/svg"><sodipodi:namedview
     id="namedview1"
     pagecolor="#ffffff"
     bordercolor="#000000"
     borderopacity="0.25"
     inkscape:showpageshadow="2"
     inkscape:pageopacity="0.0"
     inkscape:pagecheckerboard="0"
     inkscape:deskcolor="#d1d1d1"
     inkscape:document-units="mm" /><defs
     id="defs1" /><g
     inkscape:label="Layer 1"
     inkscape:groupmode="layer"
     id="layer1"
     transform="translate(-35.645403,-75.573741)"><path
       style="fill:#2d3748;stroke:none"
       d="M 167.16566,130.77816 H 39.636505 v -13.49375 c 0,-2.10371 -0.296534,-4.27898 1.5924,-5.70609 2.250068,-1.69997 7.844289,-0.64286 10.578433,-0.64391 1.37646,-5.2e-4 3.483526,0.14517 3.880555,-1.5924 0.681367,-2.98196 -3.483982,-2.37635 -5.203472,-2.37635 -4.778557,0 -11.075411,-1.23448 -13.881845,3.70417 -1.186617,2.08816 -0.934821,4.57341 -0.934821,6.87916 v 12.17084 46.30208 11.90625 c 0,2.83866 -0.09152,5.65249 1.939053,7.9128 2.107452,2.34588 5.204875,2.40595 8.115114,2.40595 h 14.287499 62.970829 19.31458 c 1.70627,0 5.77279,0.61964 5.70385,-2.11667 -0.0639,-2.5364 -4.07569,-1.85208 -5.70385,-1.85208 h -19.05 -57.943743 -16.139582 c -2.210221,0 -5.372176,0.5684 -7.407312,-0.41607 -3.808766,-1.84244 -2.117688,-11.10202 -2.117688,-14.66518 v -44.45 H 167.16566 v 37.83541 c 0,5.95033 0.86975,12.64835 -0.0565,18.52084 -0.74172,4.70231 -8.01947,3.03701 -11.32053,3.1801 -1.45001,0.0628 -2.94601,1.3008 -2.06828,2.87 0.90047,1.60985 3.71761,1.09365 5.24328,1.09365 4.72521,0 10.47201,0.18072 11.89482,-5.55625 1.50918,-6.08524 0.27601,-13.84288 0.27601,-20.10834 v -41.53958 -13.75833 c 0,-2.57982 0.19923,-5.2364 -1.46378,-7.40813 -3.85182,-5.03012 -14.32273,-2.91062 -19.96746,-2.91062 -1.54391,0 -3.88071,0.43127 -5.29167,-0.27193 -3.07144,-1.53077 -5.87697,-5.0733 -8.46667,-7.326471 -6.38997,-5.55959 -12.68113,-11.234355 -19.05,-16.818599 -5.7192,-5.014616 -11.79846,-9.195449 -19.579161,-5.662816 -5.49964,2.496973 -10.032474,8.058689 -14.552083,11.975865 -5.597276,4.8512 -11.143533,9.77493 -16.668749,14.708261 -1.439746,1.28552 -5.196896,3.48187 -4.674304,5.77204 0.555277,2.4334 5.242172,1.5924 7.055554,1.5924 h 22.754166 55.562497 13.75833 c 1.89435,0 4.07097,-0.39503 5.52093,1.08712 1.4453,1.47737 1.09365,3.6319 1.09365,5.52746 v 13.22917 M 102.87192,79.557403 c 3.87657,-0.776503 5.05414,5.43309 1.05833,6.146661 -3.951031,0.705577 -4.997141,-5.357692 -1.05833,-6.146661 m -6.614581,2.802009 c 1.20312,9.316217 13.084381,9.316187 14.287491,0 l 16.93334,14.772777 10.84791,9.833471 H 68.476087 c 3.306202,-4.32315 8.604122,-7.861141 12.699999,-11.452421 4.933699,-4.32588 9.664777,-9.450178 15.081253,-13.153827 M 43.898624,114.38134 c -1.068878,0.60168 -1.081233,1.82537 -1.086915,2.90307 -0.01176,2.2305 -1.179984,9.51732 1.59138,10.23464 2.668197,0.69061 6.235311,0.0841 8.991749,0.0841 h 19.049999 61.383333 21.43124 c 1.95133,0 6.28351,0.80597 7.87708,-0.42423 0.93497,-0.72178 0.85241,-1.95919 0.85417,-3.01535 0.004,-2.20659 1.16469,-9.25665 -1.59158,-9.97006 -2.59164,-0.6708 -6.0502,-0.0841 -8.72717,-0.0841 H 134.8865 74.29692 52.601088 c -2.269748,0 -6.705667,-0.85208 -8.702464,0.27193 m 12.142047,3.69682 c -0.468198,1.43939 -0.735002,4.03902 -1.810641,5.13202 -1.200892,1.22027 -5.800951,0.42423 -7.449775,0.42423 v -5.55625 h 9.260416 m 12.699999,0 -1.5875,5.55625 h -8.731249 l 1.5875,-5.55625 h 8.731249 m 13.758333,0 -1.5875,5.55625 H 71.12192 l 1.5875,-5.55625 h 9.789583 m 12.699996,0 c -0.19466,1.3181 -0.65619,4.44643 -1.773277,5.28432 -1.575449,1.1817 -6.5886,0.27193 -8.545469,0.27193 0.468196,-1.43937 0.735,-4.03902 1.810637,-5.13202 1.309876,-1.33101 6.689885,-0.42423 8.508109,-0.42423 m 13.758331,0 c -0.11361,1.30127 -0.62619,4.46786 -1.73653,5.28432 -1.7276,1.27034 -7.237951,0.27193 -9.375961,0.27193 0.17858,-1.32511 0.59906,-4.44792 1.73653,-5.28432 1.727611,-1.27034 7.237951,-0.27193 9.375961,-0.27193 m 12.96459,0 c -0.46642,1.45866 -0.71523,4.01892 -1.81064,5.13202 -1.30987,1.33101 -6.68989,0.42423 -8.50811,0.42423 0.19466,-1.31807 0.6562,-4.44643 1.77327,-5.28432 1.57545,-1.18169 6.58861,-0.27193 8.54548,-0.27193 m 13.75833,0 -1.5875,5.55625 h -9.78958 l 1.5875,-5.55625 h 9.78958 m 12.7,0 c -0.27413,1.32457 -0.67247,4.42454 -1.78002,5.28432 -1.52603,1.18463 -6.61847,0.27193 -8.53873,0.27193 l 1.5875,-5.55625 h 8.73125 m 11.64166,0 v 5.55625 h -9.26041 c 0.46819,-1.43939 0.73499,-4.03901 1.81064,-5.13202 1.20088,-1.22026 5.80096,-0.42423 7.44977,-0.42423 m -30.38788,25.14297 c -1.17645,0.68927 -0.83295,2.55384 -0.83295,3.69661 0,3.57225 -0.51707,7.58512 0.0392,11.11148 0.19038,1.20688 1.38676,2.15533 2.59113,1.53707 1.34485,-0.69037 1.07384,-2.39399 1.07384,-3.65271 0,-3.61033 0.6067,-7.82693 -0.0604,-11.373 -0.23688,-1.25913 -1.64241,-2.004 -2.81079,-1.31945 m 11.0733,8.19453 h 0.26459 c 0.6759,1.42246 1.67841,2.66553 2.55845,3.96875 0.99311,1.47066 2.78244,5.21351 5.09895,3.96119 1.33627,-0.72239 1.07385,-2.42177 1.07385,-3.69661 0,-3.41176 0.84038,-8.09211 -0.11474,-11.36545 -0.43714,-1.49814 -2.49806,-1.72446 -3.39304,-0.5016 -0.71538,0.97747 -0.46097,2.52662 -0.46097,3.66497 v 3.96875 c -0.96343,-1.41631 -1.95706,-2.8101 -2.91062,-4.23333 -0.94223,-1.40631 -2.58521,-4.88083 -4.75067,-4.07246 -1.46902,0.54839 -1.33405,2.26783 -1.33455,3.54329 -0.001,3.5139 -0.83969,8.25783 0.11474,11.63758 0.42887,1.51871 2.37755,2.02669 3.39303,0.72413 0.7303,-0.93673 0.46098,-2.52128 0.46098,-3.63046 v -3.96875 m -75.141659,0.52917 h 0.264583 c 0.270048,1.16729 0.689559,2.28858 1.020973,3.43958 0.537194,1.86568 2.932718,6.75062 4.981353,2.89878 0.678802,-1.27628 0.754306,-3.07973 1.035673,-4.48628 0.532424,-2.6616 1.651348,-5.75206 1.619345,-8.46667 -0.0216,-1.83256 -2.24465,-2.85158 -3.437742,-1.28372 -1.114277,1.4643 -1.171658,4.27353 -1.515436,6.04622 h -0.264583 c -0.267906,-1.81408 -1.619517,-8.79485 -4.70309,-6.45493 -1.514852,1.14952 -1.940809,4.69351 -2.44066,6.45493 -0.480053,-1.27957 -0.678901,-2.63225 -0.952786,-3.96875 -0.563123,-2.74794 -4.158499,-4.30082 -4.062659,-0.52916 0.08855,3.48465 0.976549,9.5547 2.542327,12.67224 1.866342,3.71596 4.374308,-0.77849 4.928478,-2.61808 0.36751,-1.21997 0.798061,-2.44359 0.984224,-3.70416 m 34.395828,3.43958 c 1.230111,1.23352 2.547771,3.44062 4.233331,4.03285 1.69125,0.59422 2.98568,-1.18973 2.29347,-2.70993 -0.6255,-1.37369 -1.97174,-2.45977 -2.82263,-3.70417 5.91805,-3.0721 2.48339,-9.78923 -3.175,-9.78958 -1.388151,-9e-5 -3.389531,-0.38034 -4.185971,1.07385 -1.13794,2.07772 -0.31195,6.37794 -0.31195,8.71573 0,1.63645 -0.57473,4.6865 0.66513,5.97068 2.51722,2.6072 3.30362,-2.05682 3.30362,-3.58943 m 13.493751,0.26458 c 1.00756,0.58241 1.81288,1.30552 2.64583,2.11667 1.27152,1.23823 5.84487,2.86352 4.56202,-0.79375 -0.73807,-2.10417 -5.07648,-3.66342 -5.07648,-5.82083 0,-2.01046 3.86736,-3.35319 4.54732,-5.29167 1.17959,-3.3629 -2.96315,-2.29663 -4.29744,-1.06466 -0.75377,0.69596 -1.51228,1.31487 -2.38125,1.85841 -1.7e-4,-1.57767 -1.62453,-5.59211 -3.39222,-2.60664 -0.55018,0.92921 -0.31195,2.36618 -0.31195,3.40039 0,3.04896 -0.95599,7.99992 0.15965,10.83628 0.51467,1.3085 2.41574,1.6942 3.23257,0.43648 0.53253,-0.81996 0.31195,-2.13877 0.31195,-3.07068 M 82.763586,143.61515 c -10.358726,2.21335 -6.603513,18.29262 3.704167,16.09018 10.549386,-2.25409 6.849424,-18.34517 -3.704167,-16.09018 m 17.197913,5.94843 v -2.64584 c 3.295081,0.0298 3.301961,2.63418 0,2.64584 m -15.610413,-2.27775 c 5.458771,-0.41103 6.379661,8.19199 0.79375,8.60182 -5.659719,0.41524 -6.410069,-8.17893 -0.79375,-8.60182 m -37.570831,29.26524 c 1.95257,-0.005 3.985762,-0.20395 5.432532,-1.67447 2.96993,-3.01867 1.514633,-8.0859 -2.522116,-9.19243 -1.617801,-0.44346 -5.575826,-0.8749 -6.567219,0.84806 -1.09704,1.90655 -0.311947,6.00162 -0.311947,8.16676 0,1.75119 -0.713167,5.5135 0.85418,6.71952 3.104781,2.389 3.11457,-3.36598 3.11457,-4.86744 m 14.552082,1.05834 c 1.133898,1.23104 2.376042,3.41861 3.979162,4.03591 1.641641,0.63215 2.983943,-0.84501 2.485164,-2.44841 -0.485062,-1.55931 -2.078331,-2.50631 -2.760159,-3.96875 3.220588,-1.2513 3.916131,-5.71298 1.531152,-8.15227 -1.309979,-1.33982 -3.18223,-1.6286 -4.970735,-1.63711 -1.294166,-0.006 -3.137442,-0.24063 -3.884639,1.09345 -1.166722,2.0831 -0.348694,6.35053 -0.348694,8.69593 0,1.63312 -0.590965,4.72841 0.6439,6.0013 2.540787,2.61905 3.324849,-2.06539 3.324849,-3.62005 m 40.745833,-1.85209 c -4.126941,6.34094 -11.262358,-4.02604 -3.968751,-6.13727 1.6174,-0.46818 2.705861,0.69986 4.233131,0.76047 1.22578,0.0487 2.259,-1.05925 1.99049,-2.29203 -0.36487,-1.67522 -2.67241,-2.23066 -4.10696,-2.48701 -4.000891,-0.71492 -8.421868,2.13289 -9.174462,6.18709 -1.771153,9.54114 12.371982,14.5318 15.015312,4.49792 0.28184,-1.06986 0.5336,-2.71086 -0.17966,-3.66497 -0.9434,-1.26194 -5.18246,-1.30806 -6.381241,-0.37197 -2.38771,1.86451 0.895161,3.49259 2.572141,3.50777 m 11.90625,1.85209 c 1.1339,1.23105 2.37603,3.4186 3.97916,4.03591 1.64165,0.63215 2.98395,-0.84502 2.48516,-2.44841 -0.48506,-1.55931 -2.07833,-2.50631 -2.76016,-3.96875 3.06601,-1.19124 3.93715,-5.44767 1.76206,-7.9126 -1.33437,-1.51217 -3.28055,-1.86763 -5.20164,-1.87678 -1.38955,-0.007 -3.33671,-0.20518 -3.99692,1.35047 -0.95128,2.2415 -0.23641,6.02425 -0.23641,8.43891 0,1.63312 -0.59096,4.72841 0.6439,6.0013 2.54079,2.61904 3.32485,-2.06539 3.32485,-3.62005 m 27.25208,-7.14375 c 2.19352,-2.29615 4.56733,1.614 6.47841,-0.37932 1.38604,-1.44567 -0.11158,-3.0791 -1.45153,-3.75398 -2.99154,-1.50672 -8.14214,-0.97117 -8.68124,3.07496 -0.37852,2.84098 1.17207,4.38115 3.65436,5.39661 0.77729,0.31797 3.47513,1.01215 3.08354,2.24855 -0.24835,0.78411 -1.35759,0.86206 -2.02521,0.76087 -1.35103,-0.20476 -2.31295,-1.61999 -3.70315,-1.55953 -2.99496,0.13027 -1.46338,3.38277 0.003,4.36931 4.03699,2.71621 12.22832,0.31556 9.72528,-5.65956 -1.11164,-2.65364 -4.65216,-3.50048 -7.08332,-4.49791 m 15.34583,0.26458 c 1.65621,-3.15567 4.98387,1.83539 6.60703,-1.08712 0.8971,-1.61521 -0.81643,-2.88487 -2.10911,-3.44244 -2.3938,-1.03251 -5.49299,-1.0218 -7.30422,1.11488 -2.3509,2.77334 -0.71936,6.09362 2.27713,7.32953 0.96418,0.39768 3.33917,0.90572 3.53718,2.15342 0.16882,1.06376 -1.56516,1.10993 -2.21426,0.97014 -1.24081,-0.26721 -2.14387,-1.56682 -3.43938,-1.56464 -2.09464,0.004 -2.18845,2.55701 -1.01934,3.7303 1.56954,1.57517 4.16777,2.12704 6.3108,1.85944 3.42436,-0.42761 5.98468,-4.15579 4.0645,-7.34893 -1.25817,-2.09225 -4.40663,-3.3052 -6.71033,-3.71458 m -28.31041,7.40833 v -2.11666 c 1.14982,0 2.62912,0.22457 3.67538,-0.3487 1.31866,-0.72252 1.34576,-2.61829 0.0133,-3.34812 -1.00479,-0.55034 -2.57842,-0.27193 -3.68865,-0.27193 v -2.38125 c 1.36157,0 7.88456,-0.50823 4.42402,-3.27994 -1.25001,-1.00118 -6.9634,-0.91454 -7.9318,0.40871 -0.67557,0.92314 -0.46097,2.32554 -0.46097,3.40039 0,2.79601 -1.06923,8.36548 0.31194,10.81914 0.92598,1.64499 7.03087,1.75311 8.28314,0.44321 2.80175,-2.93068 -3.15471,-3.32485 -4.62633,-3.32485 M 78.26567,166.34951 c -10.91145,1.58846 -8.487636,17.81266 2.38125,16.20736 10.111882,-1.4935 7.675411,-17.67139 -2.38125,-16.20736 m -31.485415,6.23281 v -3.175 c 3.711242,0.0106 3.663907,3.16207 0,3.175 m 14.552082,-0.52916 v -2.64584 c 3.235752,0.0293 3.23575,2.61654 0,2.64584 m 52.652083,0 v -2.64584 c 3.23575,0.0293 3.23574,2.61654 0,2.64584 m -35.454167,-1.76409 c 5.28614,-0.86403 6.668868,7.61318 1.322917,8.40277 -5.51352,0.81432 -6.846635,-7.49991 -1.322917,-8.40277 z"
       id="path1" /></g></svg>
